<svg aria-hidden="true" style="position: absolute; width: 0; height: 0; overflow: hidden;" version="1.1" xmlns="http://www.w3.org/2000/svg" xmlns:xlink="http://www.w3.org/1999/xlink">
<defs>
<symbol id="icon-clock" viewBox="0 0 20 20">
<path d="M10 0.4c-5.303 0-9.601 4.298-9.601 9.6 0 5.303 4.298 9.601 9.601 9.601 5.301 0 9.6-4.298 9.6-9.601s-4.299-9.6-9.6-9.6zM9.999 17.6c-4.197 0-7.6-3.402-7.6-7.6 0-4.197 3.402-7.6 7.6-7.6 4.197 0 7.601 3.402 7.601 7.6 0 4.197-3.404 7.6-7.601 7.6zM11 9.33v-5.33h-2v6.245l-3.546 2.048 1 1.732 4.115-2.377c0.238-0.137 0.431-0.473 0.431-0.748v-0.168l4.24-4.166c-0.198-0.271-0.411-0.529-0.647-0.766l-3.593 3.53z"></path>
</symbol>
<symbol id="icon-location-pin" viewBox="0 0 20 20">
<path d="M10 2.009c-2.762 0-5 2.229-5 4.99 0 4.774 5 11 5 11s5-6.227 5-11c0-2.76-2.238-4.99-5-4.99zM10 9.76c-1.492 0-2.7-1.209-2.7-2.7s1.208-2.7 2.7-2.7c1.49 0 2.699 1.209 2.699 2.7s-1.209 2.7-2.699 2.7z"></path>
</symbol>
<symbol id="icon-mail" viewBox="0 0 20 20">
<path d="M1.574 5.286c0.488 0.262 7.248 3.894 7.5 4.029s0.578 0.199 0.906 0.199c0.328 0 0.654-0.064 0.906-0.199s7.012-3.767 7.5-4.029c0.489-0.263 0.951-1.286 0.054-1.286h-16.919c-0.897 0-0.435 1.023 0.053 1.286zM18.613 7.489c-0.555 0.289-7.387 3.849-7.727 4.027s-0.578 0.199-0.906 0.199-0.566-0.021-0.906-0.199-7.133-3.739-7.688-4.028c-0.39-0.204-0.386 0.035-0.386 0.219s0 7.293 0 7.293c0 0.42 0.566 1 1 1h16c0.434 0 1-0.58 1-1 0 0 0-7.108 0-7.292s0.004-0.423-0.387-0.219z"></path>
</symbol>
<symbol id="icon-phone" viewBox="0 0 20 20">
<path d="M11.229 11.229c-1.583 1.582-3.417 3.096-4.142 2.371-1.037-1.037-1.677-1.941-3.965-0.102-2.287 1.838-0.53 3.064 0.475 4.068 1.16 1.16 5.484 0.062 9.758-4.211 4.273-4.274 5.368-8.598 4.207-9.758-1.005-1.006-2.225-2.762-4.063-0.475s-0.936 2.927 0.103 3.965c0.722 0.725-0.791 2.559-2.373 4.142z"></path>
</symbol>
<symbol id="icon-facebook" viewBox="0 0 20 20">
<path d="M17 1h-14c-1.1 0-2 0.9-2 2v14c0 1.101 0.9 2 2 2h7v-7h-2v-2.475h2v-2.050c0-2.164 1.212-3.684 3.766-3.684l1.803 0.002v2.605h-1.197c-0.994 0-1.372 0.746-1.372 1.438v1.69h2.568l-0.568 2.474h-2v7h4c1.1 0 2-0.899 2-2v-14c0-1.1-0.9-2-2-2z"></path>
</symbol>
<symbol id="icon-instagram" viewBox="0 0 20 20">
<path d="M17 1h-14c-1.1 0-2 0.9-2 2v14c0 1.101 0.9 2 2 2h14c1.1 0 2-0.899 2-2v-14c0-1.1-0.9-2-2-2zM9.984 15.523c3.059 0 5.538-2.481 5.538-5.539 0-0.338-0.043-0.664-0.103-0.984h1.581v7.216c0 0.382-0.31 0.69-0.693 0.69h-12.614c-0.383 0-0.693-0.308-0.693-0.69v-7.216h1.549c-0.061 0.32-0.104 0.646-0.104 0.984 0 3.059 2.481 5.539 5.539 5.539zM6.523 9.984c0-1.912 1.55-3.461 3.462-3.461s3.462 1.549 3.462 3.461-1.551 3.462-3.462 3.462c-1.913 0-3.462-1.55-3.462-3.462zM16.307 6h-1.615c-0.382 0-0.692-0.312-0.692-0.692v-1.617c0-0.382 0.31-0.691 0.691-0.691h1.615c0.384 0 0.694 0.309 0.694 0.691v1.616c0 0.381-0.31 0.693-0.693 0.693z"></path>
</symbol>
<symbol id="icon-vimeo" viewBox="0 0 20 20">
<path d="M18.91 5.84c-1.006 5.773-6.625 10.66-8.315 11.777-1.69 1.115-3.233-0.447-3.792-1.631-0.641-1.347-2.559-8.656-3.062-9.261s-2.010 0.605-2.010 0.605l-0.731-0.976c0 0 3.061-3.725 5.391-4.191 2.47-0.493 2.466 3.864 3.060 6.282 0.574 2.342 0.961 3.68 1.463 3.68s1.462-1.305 2.512-3.305c1.053-2.004-0.045-3.772-2.101-2.514 0.823-5.027 8.591-6.236 7.585-0.466z"></path>
</symbol>
<symbol id="icon-youtube" viewBox="0 0 20 20">
<path d="M10 2.3c-9.828 0-10 0.874-10 7.7s0.172 7.7 10 7.7 10-0.874 10-7.7-0.172-7.7-10-7.7zM13.205 10.334l-4.49 2.096c-0.393 0.182-0.715-0.022-0.715-0.456v-3.948c0-0.433 0.322-0.638 0.715-0.456l4.49 2.096c0.393 0.184 0.393 0.484 0 0.668z"></path>
</symbol>
<symbol id="icon-mail" viewBox="0 0 20 20">
<path d="M1.574 5.286c0.488 0.262 7.248 3.894 7.5 4.029s0.578 0.199 0.906 0.199c0.328 0 0.654-0.064 0.906-0.199s7.012-3.767 7.5-4.029c0.489-0.263 0.951-1.286 0.054-1.286h-16.919c-0.897 0-0.435 1.023 0.053 1.286zM18.613 7.489c-0.555 0.289-7.387 3.849-7.727 4.027s-0.578 0.199-0.906 0.199-0.566-0.021-0.906-0.199-7.133-3.739-7.688-4.028c-0.39-0.204-0.386 0.035-0.386 0.219s0 7.293 0 7.293c0 0.42 0.566 1 1 1h16c0.434 0 1-0.58 1-1 0 0 0-7.108 0-7.292s0.004-0.423-0.387-0.219z"></path>
</symbol>
<symbol id="icon-phone" viewBox="0 0 20 20">
<path d="M11.229 11.229c-1.583 1.582-3.417 3.096-4.142 2.371-1.037-1.037-1.677-1.941-3.965-0.102-2.287 1.838-0.53 3.064 0.475 4.068 1.16 1.16 5.484 0.062 9.758-4.211 4.273-4.274 5.368-8.598 4.207-9.758-1.005-1.006-2.225-2.762-4.063-0.475s-0.936 2.927 0.103 3.965c0.722 0.725-0.791 2.559-2.373 4.142z"></path>
</symbol>
<symbol id="icon-facebook" viewBox="0 0 20 20">
<path d="M17 1h-14c-1.1 0-2 0.9-2 2v14c0 1.101 0.9 2 2 2h7v-7h-2v-2.475h2v-2.050c0-2.164 1.212-3.684 3.766-3.684l1.803 0.002v2.605h-1.197c-0.994 0-1.372 0.746-1.372 1.438v1.69h2.568l-0.568 2.474h-2v7h4c1.1 0 2-0.899 2-2v-14c0-1.1-0.9-2-2-2z"></path>
</symbol>
<symbol id="icon-vimeo" viewBox="0 0 20 20">
<path d="M18.91 5.84c-1.006 5.773-6.625 10.66-8.315 11.777-1.69 1.115-3.233-0.447-3.792-1.631-0.641-1.347-2.559-8.656-3.062-9.261s-2.010 0.605-2.010 0.605l-0.731-0.976c0 0 3.061-3.725 5.391-4.191 2.47-0.493 2.466 3.864 3.060 6.282 0.574 2.342 0.961 3.68 1.463 3.68s1.462-1.305 2.512-3.305c1.053-2.004-0.045-3.772-2.101-2.514 0.823-5.027 8.591-6.236 7.585-0.466z"></path>
</symbol>
<symbol id="icon-instagram" viewBox="0 0 32 32">
<path d="M16 2.881c4.275 0 4.781 0.019 6.462 0.094 1.563 0.069 2.406 0.331 2.969 0.55 0.744 0.288 1.281 0.638 1.837 1.194 0.563 0.563 0.906 1.094 1.2 1.838 0.219 0.563 0.481 1.412 0.55 2.969 0.075 1.688 0.094 2.194 0.094 6.463s-0.019 4.781-0.094 6.463c-0.069 1.563-0.331 2.406-0.55 2.969-0.288 0.744-0.637 1.281-1.194 1.837-0.563 0.563-1.094 0.906-1.837 1.2-0.563 0.219-1.413 0.481-2.969 0.55-1.688 0.075-2.194 0.094-6.463 0.094s-4.781-0.019-6.463-0.094c-1.563-0.069-2.406-0.331-2.969-0.55-0.744-0.288-1.281-0.637-1.838-1.194-0.563-0.563-0.906-1.094-1.2-1.837-0.219-0.563-0.481-1.413-0.55-2.969-0.075-1.688-0.094-2.194-0.094-6.463s0.019-4.781 0.094-6.463c0.069-1.563 0.331-2.406 0.55-2.969 0.288-0.744 0.638-1.281 1.194-1.838 0.563-0.563 1.094-0.906 1.838-1.2 0.563-0.219 1.412-0.481 2.969-0.55 1.681-0.075 2.188-0.094 6.463-0.094zM16 0c-4.344 0-4.887 0.019-6.594 0.094-1.7 0.075-2.869 0.35-3.881 0.744-1.056 0.412-1.95 0.956-2.837 1.85-0.894 0.888-1.438 1.781-1.85 2.831-0.394 1.019-0.669 2.181-0.744 3.881-0.075 1.713-0.094 2.256-0.094 6.6s0.019 4.887 0.094 6.594c0.075 1.7 0.35 2.869 0.744 3.881 0.413 1.056 0.956 1.95 1.85 2.837 0.887 0.887 1.781 1.438 2.831 1.844 1.019 0.394 2.181 0.669 3.881 0.744 1.706 0.075 2.25 0.094 6.594 0.094s4.888-0.019 6.594-0.094c1.7-0.075 2.869-0.35 3.881-0.744 1.050-0.406 1.944-0.956 2.831-1.844s1.438-1.781 1.844-2.831c0.394-1.019 0.669-2.181 0.744-3.881 0.075-1.706 0.094-2.25 0.094-6.594s-0.019-4.887-0.094-6.594c-0.075-1.7-0.35-2.869-0.744-3.881-0.394-1.063-0.938-1.956-1.831-2.844-0.887-0.887-1.781-1.438-2.831-1.844-1.019-0.394-2.181-0.669-3.881-0.744-1.712-0.081-2.256-0.1-6.6-0.1v0z"></path>
<path d="M16 7.781c-4.537 0-8.219 3.681-8.219 8.219s3.681 8.219 8.219 8.219 8.219-3.681 8.219-8.219c0-4.537-3.681-8.219-8.219-8.219zM16 21.331c-2.944 0-5.331-2.387-5.331-5.331s2.387-5.331 5.331-5.331c2.944 0 5.331 2.387 5.331 5.331s-2.387 5.331-5.331 5.331z"></path>
<path d="M26.462 7.456c0 1.060-0.859 1.919-1.919 1.919s-1.919-0.859-1.919-1.919c0-1.060 0.859-1.919 1.919-1.919s1.919 0.859 1.919 1.919z"></path>
</symbol>
</defs>
</svg>
