<?xml version="1.0" encoding="UTF-8"?><svg id="Layer_2" xmlns="http://www.w3.org/2000/svg" viewBox="0 0 1841.7 65.01"><g id="Layer_1-2"><path d="M1840.7,65.01c.5-4.72-2.21-8.17-5.77-10.2-7-4-14.18-8.05-21.8-10.62-23.9-8.06-48.86-11.48-73.78-14.79-80.96-10.77-162.44-15.08-243.98-18.62-150.95-6.56-302.01-8.28-453.07-8.41-159.22-.14-318.45,.93-477.67,2.03-57.12,.4-114.25,1.74-171.32,3.91-64.23,2.44-128.43,5.79-192.58,9.74-44.86,2.76-89.61,7.27-133.87,15.47-17.03,3.16-33.97,6.75-49.82,13.99-6.68,3.05-12.85,6.76-17.05,14.29V0H1841.7c0,20.36,.02,40.72-.04,61.07,0,1.31-.62,2.63-.96,3.94Z"/></g></svg>